<?xml version="1.0" encoding="UTF-8"?>
<svg id="Layer_1" data-name="Layer 1" xmlns="http://www.w3.org/2000/svg" viewBox="0 0 1318.36 1318.36">
  <defs>
    <style>
      .cls-1 {
        fill: #231f20;
        stroke-width: 0px;
      }
    </style>
  </defs>
  <g>
    <path class="cls-1" d="m280.71,653.84l-208.77-14.38-4.57,66.36-44.74-3.08,12.22-177.45,44.74,3.08-4.57,66.36,208.77,14.38-3.08,44.74Z"/>
    <path class="cls-1" d="m325.45,478.54l-105.85-64.71-157.93,9.01,29.04-47.51,98.37-6.87-37.95-91.96,27.87-45.59,63.78,144.99,105.85,64.71-23.19,37.94Z"/>
    <path class="cls-1" d="m405.45,367.51l-130.33-218.14,73.14-43.7c23.52-14.05,44.45-18.86,62.77-14.43,18.32,4.44,33.42,16.6,45.31,36.49,11.88,19.89,15.47,39.01,10.76,57.35-4.71,18.34-18.73,34.48-42.03,48.4l-35.29,21.08,42.74,71.54c2.3,3.85,4.51,7.32,6.65,10.39,2.13,3.08,4.26,5.44,6.39,7.06l-40.1,23.96Zm-35.53-225.59l-34.97,20.89,33.16,55.49,34-20.32c10.91-6.52,17.35-13.7,19.33-21.56,1.98-7.85.35-16.17-4.89-24.94-5.24-8.77-11.97-13.96-20.19-15.58-8.22-1.62-17.04.38-26.45,6Z"/>
    <path class="cls-1" d="m658.5,280.66c-15.69.16-30.43-2.74-44.19-8.7-13.77-5.96-25.81-14.56-36.14-25.79-10.33-11.23-18.51-24.91-24.53-41.04-6.02-16.13-9.13-34.16-9.34-54.09-.2-19.93,2.53-38.01,8.23-54.27,5.68-16.25,13.52-30.09,23.49-41.54,9.97-11.44,21.84-20.28,35.6-26.53,13.76-6.24,28.49-9.45,44.19-9.61s30.54,2.74,44.56,8.7c14.01,5.96,26.18,14.56,36.51,25.79,10.33,11.23,18.5,24.91,24.53,41.04,6.02,16.14,9.13,34.16,9.34,54.09.21,19.93-2.6,38.02-8.41,54.27-5.81,16.26-13.77,30.1-23.86,41.54-10.1,11.44-22.03,20.28-35.79,26.53-13.76,6.24-28.49,9.45-44.18,9.61Zm-.46-44.47c19.43-.2,35.36-8.03,47.78-23.47,12.42-15.45,18.5-36.63,18.22-63.53-.28-26.9-6.79-47.95-19.52-63.14-12.74-15.19-28.82-22.69-48.25-22.49-19.43.2-35.3,8.03-47.59,23.47-12.3,15.45-18.31,36.62-18.03,63.53.28,26.9,6.72,47.95,19.33,63.15,12.61,15.19,28.64,22.69,48.07,22.49Z"/>
    <path class="cls-1" d="m817.88,309.26l96.44-185.72-59.03-30.65,20.67-39.8,157.86,81.98-20.67,39.8-59.03-30.66-96.44,185.72-39.8-20.67Z"/>
    <path class="cls-1" d="m927.2,374.65l204.88-150.31,91.96,125.34-34.05,24.98-65.65-89.48-41.88,30.73,62.12,84.66-34.05,24.98-62.12-84.66-60.86,44.65,65.65,89.49-34.05,24.98-91.96-125.34Z"/>
    <path class="cls-1" d="m1224.83,665.19l-6.8-44.33c5.34-1.33,10.86-3.12,16.57-5.38,5.7-2.26,10.71-5.36,15.02-9.3,4.31-3.94,7.6-9.17,9.88-15.69,2.27-6.53,2.64-14.84,1.09-24.93-2.27-14.77-7.27-25.22-15.02-31.34-7.74-6.12-16.54-8.42-26.39-6.91-15.02,2.3-22.95,11.02-23.78,26.14-.84,15.12-1.39,31.59-1.68,49.41-.29,17.81-3.93,34.75-10.92,50.82-6.99,16.06-24.14,26.2-51.48,30.39-12.56,1.93-24.31,1.33-35.24-1.78-10.94-3.11-20.51-8.38-28.7-15.82-8.2-7.44-15.06-16.85-20.59-28.22-5.53-11.38-9.37-24.08-11.52-38.12-2.72-17.73-2.53-33.33.57-46.78,3.1-13.46,8.12-24.68,15.06-33.69,6.94-9,15.27-15.83,25.02-20.47,9.74-4.65,20.03-7.04,30.84-7.19l7.14,46.54c-7.07,1.59-13.72,3.43-19.95,5.52-6.24,2.09-11.49,5.17-15.79,9.23-4.29,4.06-7.37,9.5-9.21,16.35-1.85,6.83-1.92,15.8-.22,26.88,2.76,17.97,8.45,30.02,17.07,36.13,8.62,6.11,17.74,8.43,27.34,6.96,16-2.45,24.73-11.3,26.18-26.51,1.44-15.22,2.49-31.82,3.13-49.82.64-18,4.58-35.05,11.81-51.15,7.23-16.11,24.52-26.26,51.85-30.45,10.58-1.62,20.69-1.04,30.33,1.77,9.63,2.81,18.3,7.59,26.02,14.35,7.71,6.76,14.33,15.38,19.85,25.88,5.51,10.5,9.29,22.39,11.33,35.69,2.61,16.99,2.75,31.9.44,44.73-2.32,12.83-6.58,23.63-12.8,32.4-6.22,8.77-14.19,15.54-23.92,20.3-9.73,4.77-20.58,7.56-32.55,8.4Z"/>
    <path class="cls-1" d="m974.25,1037.14l-31.72,34.29c-23.29-23.25-35.49-48.95-36.59-77.11-1.1-28.17,9.18-53.95,30.84-77.36,10.15-10.97,21.85-19.58,35.09-25.83,13.24-6.25,27.4-9.45,42.47-9.59,15.07-.15,30.66,3.08,46.79,9.68,16.12,6.6,32.14,17.26,48.05,31.98,15.91,14.72,27.87,29.76,35.87,45.14,8,15.37,12.6,30.49,13.8,45.34,1.19,14.85-.85,29.16-6.13,42.94-5.28,13.77-13.25,26.43-23.91,37.95-21.15,22.86-45.4,34.95-72.76,36.28-27.36,1.32-55.23-9.27-83.61-31.78l34-36.76c18.73,14.6,35.78,21.39,51.17,20.35,15.38-1.04,28.66-7.59,39.82-19.66,13.2-14.26,18.51-30.56,15.95-48.88-2.56-18.33-14.45-37.3-35.67-56.92-21.22-19.63-41.1-29.96-59.65-31-18.55-1.05-34.34,5.48-47.37,19.56-11.17,12.07-16.48,24.88-15.96,38.43.53,13.55,7.03,31.2,19.51,52.92Z"/>
    <path class="cls-1" d="m844.67,999.12l79.73,241.28-42.22,13.95-66.48-201.18-95.8,31.65-13.25-40.09,138.02-45.61Z"/>
    <path class="cls-1" d="m485.01,1274.42l25.17-178.35c3.2-22.7,14.08-40.03,32.62-52.01,18.55-11.98,40.9-16.12,67.04-12.43,14.06,1.98,26.21,5.91,36.46,11.75,10.25,5.84,18.55,12.93,24.93,21.25,6.37,8.32,10.78,17.68,13.21,28.09,2.44,10.4,2.88,21.03,1.35,31.89l-24.65,174.65-43.66-6.16,24.28-172.06c1.6-11.35-.72-21.18-6.97-29.48-6.25-8.31-16.78-13.5-31.58-15.59-12.82-1.81-23.84-.41-33.05,4.21-9.2,4.61-14.61,12.59-16.21,23.94l-24.91,176.5-44.03-6.22Z"/>
    <path class="cls-1" d="m492.51,1010.08l-158.89,198.3-80.78-64.72c-11.66-9.35-20.53-18.69-26.62-28.03-6.08-9.35-9.79-18.46-11.13-27.35-1.33-8.89-.63-17.43,2.09-25.62,2.73-8.19,6.9-15.78,12.51-22.78,8.1-10.11,17.13-17,27.09-20.67,9.97-3.67,20.16-5.64,30.58-5.9-6.14-13.86-7.69-26.35-4.67-37.5,3.03-11.15,7.5-20.41,13.41-27.8,13.55-16.91,30.28-26.34,50.18-28.27,19.91-1.93,41.23,6.22,63.97,24.44l82.24,65.89Zm-213.56,100.39l46.37,37.15,38.55-48.12-45.49-36.45c-10.5-8.41-19.73-12.62-27.71-12.63-7.97,0-15.39,4.26-22.25,12.82-6.7,8.36-8.95,16.45-6.76,24.27,2.19,7.82,7.95,15.47,17.29,22.95Zm65.83-80.37l45.49,36.45,41.12-51.33-52.2-41.82c-8.94-7.16-17.61-10.6-25.99-10.29-8.38.3-15.85,4.54-22.39,12.7-7.01,8.75-9.16,17.8-6.44,27.16,2.72,9.36,9.52,18.4,20.41,27.12Z"/>
  </g>
  <g>
    <circle class="cls-1" cx="1176.36" cy="796.31" r="38.24"/>
    <circle class="cls-1" cx="176.86" cy="835.19" r="38.24"/>
  </g>
</svg>