<?xml version="1.0" encoding="UTF-8"?>
<svg id="Layer_1" data-name="Layer 1" xmlns="http://www.w3.org/2000/svg" viewBox="0 0 1318.36 1318.36">
  <defs>
    <style>
      .cls-1 {
        fill: none;
        stroke: #231f20;
        stroke-miterlimit: 10;
        stroke-width: 6px;
      }

      .cls-2 {
        fill: #231f20;
        stroke-width: 0px;
      }
    </style>
  </defs>
  <g>
    <g>
      <path class="cls-2" d="m300.82,654.12l-197.68-13.61-4.33,62.83-42.36-2.92,11.57-168.02,42.36,2.92-4.33,62.83,197.68,13.61-2.92,42.36Z"/>
      <path class="cls-2" d="m343.18,488.14l-100.23-61.28-149.53,8.53,27.5-44.98,93.14-6.51-35.93-87.07,26.39-43.17,60.39,137.28,100.22,61.28-21.96,35.92Z"/>
      <path class="cls-2" d="m418.93,383.01l-123.41-206.55,69.25-41.38c22.27-13.31,42.09-17.86,59.43-13.67,17.35,4.2,31.65,15.71,42.9,34.55,11.25,18.83,14.65,36.94,10.18,54.3-4.46,17.37-17.73,32.65-39.8,45.83l-33.41,19.96,40.47,67.74c2.18,3.64,4.27,6.93,6.29,9.84,2.01,2.92,4.04,5.15,6.05,6.69l-37.97,22.69Zm-33.65-213.6l-33.11,19.78,31.4,52.55,32.2-19.24c10.33-6.17,16.43-12.97,18.3-20.41,1.87-7.44.33-15.31-4.63-23.61-4.96-8.3-11.34-13.22-19.12-14.75-7.79-1.53-16.13.36-25.04,5.69Z"/>
      <path class="cls-2" d="m658.54,300.77c-14.86.15-28.81-2.6-41.84-8.24-13.03-5.64-24.44-13.78-34.22-24.42-9.79-10.63-17.53-23.58-23.22-38.86-5.7-15.27-8.65-32.34-8.84-51.22-.19-18.87,2.4-35.99,7.79-51.39,5.38-15.39,12.8-28.49,22.24-39.33,9.44-10.83,20.68-19.2,33.71-25.12,13.03-5.91,26.98-8.95,41.84-9.1s28.92,2.59,42.19,8.24c13.27,5.65,24.79,13.78,34.57,24.42,9.78,10.64,17.52,23.59,23.22,38.86,5.7,15.28,8.65,32.35,8.84,51.22.19,18.87-2.46,36-7.96,51.39-5.5,15.4-13.04,28.5-22.6,39.33-9.56,10.84-20.86,19.21-33.89,25.12-13.03,5.91-26.98,8.95-41.84,9.1Zm-.43-42.1c18.4-.19,33.48-7.6,45.24-22.23,11.76-14.63,17.51-34.68,17.25-60.16-.26-25.47-6.43-45.4-18.48-59.79-12.06-14.38-27.29-21.48-45.69-21.29-18.4.19-33.42,7.6-45.06,22.23-11.65,14.63-17.34,34.68-17.07,60.15.26,25.48,6.36,45.4,18.31,59.79,11.94,14.38,27.11,21.48,45.51,21.29Z"/>
      <path class="cls-2" d="m809.44,327.86l91.32-175.85-55.89-29.02,19.57-37.68,149.47,77.62-19.57,37.68-55.89-29.03-91.32,175.85-37.68-19.57Z"/>
      <path class="cls-2" d="m912.96,389.77l193.99-142.33,87.07,118.68-32.24,23.65-62.16-84.73-39.66,29.09,58.81,80.16-32.24,23.65-58.82-80.16-57.63,42.28,62.16,84.73-32.24,23.65-87.07-118.68Z"/>
      <path class="cls-2" d="m1194.78,664.87l-6.44-41.97c5.05-1.26,10.29-2.95,15.69-5.09,5.4-2.14,10.14-5.08,14.22-8.8,4.08-3.73,7.2-8.68,9.35-14.86,2.15-6.18,2.5-14.05,1.03-23.61-2.15-13.99-6.89-23.88-14.22-29.68-7.33-5.8-15.67-7.98-24.99-6.55-14.23,2.18-21.73,10.43-22.51,24.75-.79,14.31-1.32,29.91-1.59,46.78-.28,16.87-3.72,32.9-10.34,48.12-6.62,15.21-22.86,24.81-48.74,28.78-11.89,1.83-23.02,1.26-33.37-1.68-10.36-2.95-19.42-7.94-27.18-14.98-7.76-7.04-14.26-15.95-19.49-26.72-5.23-10.78-8.87-22.8-10.91-36.09-2.58-16.79-2.39-31.55.54-44.29,2.93-12.74,7.69-23.37,14.26-31.9,6.57-8.52,14.46-14.99,23.7-19.38,9.22-4.4,18.96-6.67,29.2-6.81l6.76,44.07c-6.69,1.5-12.99,3.24-18.89,5.22-5.9,1.98-10.88,4.89-14.95,8.74-4.06,3.85-6.98,9-8.72,15.48-1.75,6.47-1.82,14.96-.21,25.45,2.61,17.02,8,28.42,16.17,34.21,8.16,5.78,16.8,7.98,25.89,6.59,15.15-2.32,23.42-10.7,24.79-25.1,1.37-14.41,2.36-30.13,2.96-47.17.61-17.04,4.33-33.18,11.18-48.43,6.85-15.25,23.21-24.86,49.09-28.83,10.02-1.54,19.59-.98,28.71,1.68,9.12,2.66,17.33,7.19,24.64,13.58,7.3,6.4,13.57,14.56,18.8,24.5,5.22,9.94,8.8,21.2,10.73,33.79,2.47,16.09,2.6,30.21.41,42.35-2.2,12.15-6.23,22.37-12.12,30.68-5.89,8.3-13.44,14.71-22.65,19.23-9.21,4.51-19.49,7.16-30.82,7.95Z"/>
      <path class="cls-2" d="m957.51,1017.06l-30.03,32.47c-22.05-22.01-33.6-46.35-34.64-73.02-1.04-26.67,8.69-51.09,29.2-73.25,9.61-10.39,20.69-18.54,33.22-24.45,12.54-5.92,25.94-8.94,40.21-9.08,14.27-.14,29.03,2.91,44.3,9.17,15.27,6.25,30.43,16.34,45.5,30.28,15.06,13.94,26.39,28.18,33.96,42.74,7.58,14.56,11.93,28.87,13.06,42.93,1.13,14.06-.8,27.61-5.8,40.66-5,13.04-12.55,25.03-22.64,35.94-20.02,21.64-42.99,33.09-68.9,34.36-25.91,1.25-52.3-8.78-79.17-30.09l32.2-34.81c17.73,13.83,33.88,20.25,48.45,19.27,14.57-.99,27.14-7.19,37.71-18.62,12.49-13.51,17.53-28.94,15.1-46.28-2.43-17.36-13.69-35.32-33.77-53.9-20.09-18.58-38.91-28.37-56.48-29.35-17.56-.99-32.51,5.19-44.85,18.52-10.57,11.43-15.61,23.56-15.11,36.39.5,12.83,6.66,29.54,18.48,50.11Z"/>
      <path class="cls-2" d="m834.81,981.06l75.49,228.45-39.98,13.21-62.94-190.49-90.71,29.97-12.54-37.96,130.69-43.18Z"/>
      <path class="cls-2" d="m494.27,1241.73l23.83-168.87c3.03-21.49,13.33-37.91,30.89-49.24,17.56-11.34,38.72-15.26,63.48-11.77,13.31,1.88,24.82,5.59,34.52,11.13,9.7,5.53,17.57,12.24,23.6,20.12,6.03,7.88,10.21,16.74,12.5,26.6,2.31,9.85,2.73,19.91,1.28,30.2l-23.34,165.37-41.34-5.83,22.99-162.92c1.52-10.75-.68-20.05-6.6-27.91-5.91-7.87-15.89-12.78-29.9-14.76-12.14-1.71-22.57-.39-31.29,3.98-8.71,4.37-13.83,11.92-15.35,22.67l-23.58,167.12-41.69-5.88Z"/>
      <path class="cls-2" d="m501.37,991.44l-150.45,187.77-76.49-61.28c-11.04-8.85-19.44-17.7-25.21-26.54-5.75-8.85-9.27-17.48-10.54-25.9-1.26-8.42-.6-16.51,1.98-24.26,2.59-7.75,6.53-14.94,11.84-21.57,7.67-9.57,16.22-16.09,25.66-19.57,9.44-3.48,19.09-5.34,28.96-5.59-5.81-13.12-7.28-24.95-4.42-35.51,2.87-10.55,7.1-19.33,12.7-26.32,12.83-16.01,28.67-24.94,47.51-26.76,18.85-1.83,39.04,5.89,60.57,23.14l77.87,62.39Zm-202.21,95.06l43.9,35.18,36.5-45.56-43.08-34.52c-9.94-7.96-18.68-11.95-26.24-11.95-7.55,0-14.57,4.04-21.06,12.14-6.34,7.91-8.47,15.58-6.4,22.98,2.08,7.4,7.53,14.65,16.37,21.73Zm62.33-76.1l43.08,34.51,38.94-48.6-49.43-39.6c-8.46-6.78-16.67-10.03-24.61-9.74-7.94.29-15.01,4.3-21.2,12.03-6.64,8.28-8.67,16.86-6.1,25.72,2.57,8.86,9.01,17.42,19.32,25.68Z"/>
    </g>
    <g>
      <circle class="cls-2" cx="1148.88" cy="789.02" r="36.21"/>
      <circle class="cls-2" cx="202.49" cy="825.84" r="36.21"/>
    </g>
  </g>
  <circle class="cls-1" cx="659.18" cy="659.18" r="651.64"/>
</svg>